<svg width="40" height="40" viewBox="0 0 40 40" fill="none" xmlns="http://www.w3.org/2000/svg">
<path d="M16.5073 0.153565C12.6749 0.152899 8.96371 1.49624 6.01967 3.94974C3.07564 6.40324 1.08526 9.8115 0.395035 13.5812C-0.295188 17.3509 0.358458 21.2433 2.24218 24.5807C4.12591 27.9182 7.12041 30.4893 10.7044 31.8466L12.0884 27.991C9.41239 26.9594 7.18166 25.0239 5.78294 22.5202C4.38423 20.0164 3.90571 17.1021 4.43035 14.2825C4.95499 11.4629 6.44971 8.91571 8.65539 7.08258C10.8611 5.24945 13.6387 4.2459 16.5067 4.2459C19.3747 4.2459 22.1522 5.24945 24.3579 7.08258C26.5636 8.91571 28.0583 11.4629 28.583 14.2825C29.1076 17.1021 28.6291 20.0164 27.2304 22.5202C25.8317 25.0239 23.6009 26.9594 20.9249 27.991L22.3089 31.8466C25.8928 30.4894 28.8872 27.9183 30.771 24.581C32.6547 21.2437 33.3085 17.3514 32.6184 13.5818C31.9283 9.81222 29.9382 6.40397 26.9944 3.95037C24.0506 1.49677 20.3396 0.153204 16.5073 0.153565Z" fill="#008ECF"/>
<path d="M13.4725 24.1352L14.8579 20.2757C13.9982 19.8972 13.2948 19.2346 12.8657 18.399C12.4366 17.5633 12.308 16.6056 12.5014 15.6863C12.6947 14.7671 13.1984 13.9423 13.9278 13.3504C14.6572 12.7585 15.568 12.4354 16.5073 12.4354C17.4467 12.4354 18.3575 12.7585 19.0869 13.3504C19.8163 13.9423 20.3199 14.7671 20.5133 15.6863C20.7067 16.6056 20.5781 17.5633 20.149 18.399C19.7199 19.2346 19.0165 19.8972 18.1568 20.2757L19.5421 24.1352C21.312 23.4297 22.7808 22.1294 23.6957 20.4581C24.6107 18.7868 24.9147 16.8489 24.5555 14.9777C24.1962 13.1064 23.1962 11.4189 21.7274 10.2052C20.2585 8.99156 18.4127 8.32764 16.5073 8.32764C14.602 8.32764 12.7561 8.99156 11.2873 10.2052C9.81845 11.4189 8.81842 13.1064 8.45918 14.9777C8.09994 16.8489 8.40395 18.7868 9.31891 20.4581C10.2339 22.1294 11.7026 23.4297 13.4725 24.1352Z" fill="#ffffff"/>
</svg>
